<svg width="34" height="27" viewBox="0 0 34 27" fill="none" xmlns="http://www.w3.org/2000/svg">
<path fill-rule="evenodd" clip-rule="evenodd" d="M29.835 20.8533L3.315 20.8533C1.48512 20.8533 -2.13854e-09 22.0211 -2.27827e-09 23.46C-2.41801e-09 24.8989 1.48512 26.0667 3.315 26.0667L29.835 26.0667C31.6649 26.0667 33.15 24.8989 33.15 23.46C33.15 22.0211 31.6649 20.8533 29.835 20.8533ZM29.835 10.4267L3.315 10.4267C1.48512 10.4267 -1.12597e-09 11.5945 -1.26571e-09 13.0333C-1.40544e-09 14.4722 1.48512 15.64 3.315 15.64L29.835 15.64C31.6649 15.64 33.15 14.4722 33.15 13.0333C33.15 11.5945 31.6649 10.4267 29.835 10.4267ZM3.315 5.21333L29.835 5.21333C31.6649 5.21333 33.15 4.04555 33.15 2.60667C33.15 1.16779 31.6649 3.07507e-09 29.835 2.89737e-09L3.315 3.2193e-10C1.48512 1.44225e-10 -1.13407e-10 1.16779 -2.53141e-10 2.60667C-3.92875e-10 4.04555 1.48512 5.21333 3.315 5.21333Z" fill="black"/>
</svg>
