<svg width="44" height="43" viewBox="0 0 44 43" fill="none" xmlns="http://www.w3.org/2000/svg">
<ellipse cx="25" cy="21.5" rx="19" ry="21.5" fill="#C2C2C2"/>
<circle cx="21.5" cy="21.5" r="21.5" fill="#EDEFFB"/>
<g clip-path="url(#clip0_120_2)">
<path d="M20.4672 16.5862L20.1777 17.0687C19.751 16.8382 19.2806 16.69 18.7935 16.6323C18.3063 16.5746 17.812 16.6086 17.3388 16.7324C16.8655 16.8562 16.4225 17.0674 16.0352 17.3539C15.6478 17.6404 15.3237 17.9965 15.0813 18.402L14.5734 18.1274C15.1401 17.1808 16.0793 16.4867 17.1845 16.1977C18.2897 15.9087 19.4704 16.0485 20.4672 16.5862Z" fill="#231F20"/>
<path d="M23.5922 15.1672C20.932 12.4582 16.4473 12.3098 13.5953 14.8365C12.2447 16.0363 11.4423 17.6908 11.36 19.4457C11.2777 21.2007 11.9221 22.9164 13.1551 24.2255C14.388 25.5346 16.1116 26.333 17.9566 26.4497C19.8017 26.5664 21.6214 25.9921 23.0262 24.8498C23.1001 24.7896 23.1729 24.7278 23.2445 24.6642C23.3164 24.6007 23.3863 24.5358 23.4547 24.4701C24.7366 23.2359 25.4666 21.5786 25.4922 19.8449C25.5179 18.1112 24.8371 16.4351 23.5922 15.1672ZM24.1676 19.9432C24.1159 21.3575 23.4884 22.6976 22.4173 23.6813C21.3462 24.6649 19.9151 25.2152 18.4254 25.2164C18.3574 25.2164 18.2891 25.2153 18.2203 25.2131C17.4652 25.19 16.7225 25.0249 16.035 24.7274C15.3476 24.4299 14.729 24.0058 14.2152 23.4797C12.0523 21.2754 12.1793 17.8131 14.498 15.7583C15.3297 15.0212 16.3728 14.535 17.4954 14.3612C18.6179 14.1873 19.7696 14.3336 20.8046 14.7815C21.8397 15.2295 22.7116 15.959 23.3102 16.8777C23.9088 17.7965 24.2072 18.8633 24.1676 19.9432Z" fill="#231F20"/>
<path d="M20.4672 16.5862L20.1777 17.0687C19.751 16.8382 19.2806 16.69 18.7935 16.6323C18.3063 16.5746 17.812 16.6086 17.3388 16.7324C16.8655 16.8562 16.4225 17.0674 16.0352 17.3539C15.6478 17.6404 15.3237 17.9965 15.0813 18.402L14.5734 18.1274C15.1401 17.1808 16.0793 16.4867 17.1845 16.1977C18.2897 15.9087 19.4704 16.0485 20.4672 16.5862Z" fill="white"/>
<path d="M29.8667 31.2947L25.0569 26.5714L23.1429 28.2685L27.9534 32.9943C28.0704 33.1136 28.211 33.2096 28.3672 33.277C28.5234 33.3444 28.6921 33.3818 28.8636 33.3869H28.91C29.165 33.3867 29.4144 33.3157 29.6275 33.1827C29.8407 33.0497 30.0083 32.8605 30.1099 32.6383C30.2114 32.4161 30.2425 32.1706 30.1993 31.9319C30.1561 31.6931 30.0405 31.4716 29.8667 31.2944V31.2947Z" fill="#231F20"/>
<path d="M23.2588 24.2701L22.8303 24.6498L24.554 26.4052L24.9825 26.0255L23.2588 24.2701Z" fill="#231F20"/>
<path d="M20.4672 16.5862L20.1777 17.0687C19.751 16.8382 19.2806 16.69 18.7935 16.6323C18.3063 16.5746 17.812 16.6086 17.3388 16.7324C16.8655 16.8562 16.4225 17.0674 16.0352 17.3539C15.6478 17.6404 15.3237 17.9965 15.0813 18.402L14.5734 18.1274C15.1401 17.1808 16.0793 16.4867 17.1845 16.1977C18.2897 15.9087 19.4704 16.0485 20.4672 16.5862Z" fill="#231F20"/>
</g>
<defs>
<clipPath id="clip0_120_2">
<rect width="20" height="19" fill="white" transform="translate(11 13)"/>
</clipPath>
</defs>
</svg>
